<?xml version="1.0" encoding="UTF-8" standalone="no"?><svg xmlns="http://www.w3.org/2000/svg" xmlns:xlink="http://www.w3.org/1999/xlink" contentStyleType="text/css" height="180px" preserveAspectRatio="none" style="width:655px;height:180px;background:#FFFFFF;" version="1.1" viewBox="0 0 655 180" width="655px" zoomAndPan="magnify"><defs/><g><!--MD5=[574a74b05ee530937e95a7ffbe34a967]
entity style--><g id="elem_style"><rect fill="#F1F1F1" height="46.2969" rx="2.5" ry="2.5" style="stroke:#181818;stroke-width:0.5;" width="171" x="182" y="7"/><rect fill="#F1F1F1" height="10" style="stroke:#181818;stroke-width:0.5;" width="15" x="333" y="12"/><rect fill="#F1F1F1" height="2" style="stroke:#181818;stroke-width:0.5;" width="4" x="331" y="14"/><rect fill="#F1F1F1" height="2" style="stroke:#181818;stroke-width:0.5;" width="4" x="331" y="18"/><text fill="#000000" font-family="sans-serif" font-size="14" lengthAdjust="spacing" textLength="131" x="197" y="39.9951">architectural style</text></g><!--MD5=[1bf6c14d8b468624c8bf6af0e2bcba95]
entity infra--><g id="elem_infra"><rect fill="#F1F1F1" height="46.2969" rx="2.5" ry="2.5" style="stroke:#181818;stroke-width:0.5;" width="209" x="413" y="7"/><rect fill="#F1F1F1" height="10" style="stroke:#181818;stroke-width:0.5;" width="15" x="602" y="12"/><rect fill="#F1F1F1" height="2" style="stroke:#181818;stroke-width:0.5;" width="4" x="600" y="14"/><rect fill="#F1F1F1" height="2" style="stroke:#181818;stroke-width:0.5;" width="4" x="600" y="18"/><text fill="#000000" font-family="sans-serif" font-size="14" lengthAdjust="spacing" textLength="169" x="428" y="39.9951">technical infrastructure</text></g><!--MD5=[58b586ad9caebef2cfd75194b6a3785c]
entity func--><g id="elem_func"><rect fill="#F1F1F1" height="46.2969" rx="2.5" ry="2.5" style="stroke:#181818;stroke-width:0.5;" width="243" x="134" y="119"/><rect fill="#F1F1F1" height="10" style="stroke:#181818;stroke-width:0.5;" width="15" x="357" y="124"/><rect fill="#F1F1F1" height="2" style="stroke:#181818;stroke-width:0.5;" width="4" x="355" y="126"/><rect fill="#F1F1F1" height="2" style="stroke:#181818;stroke-width:0.5;" width="4" x="355" y="130"/><text fill="#000000" font-family="sans-serif" font-size="14" lengthAdjust="spacing" textLength="203" x="149" y="151.9951">functional architecture level</text></g><!--MD5=[5b0c0b04ab82401a01404ba781410695]
entity tech--><g id="elem_tech"><rect fill="#F1F1F1" height="46.2969" rx="2.5" ry="2.5" style="stroke:#181818;stroke-width:0.5;" width="237" x="412" y="119"/><rect fill="#F1F1F1" height="10" style="stroke:#181818;stroke-width:0.5;" width="15" x="629" y="124"/><rect fill="#F1F1F1" height="2" style="stroke:#181818;stroke-width:0.5;" width="4" x="627" y="126"/><rect fill="#F1F1F1" height="2" style="stroke:#181818;stroke-width:0.5;" width="4" x="627" y="130"/><text fill="#000000" font-family="sans-serif" font-size="14" lengthAdjust="spacing" textLength="197" x="427" y="151.9951">technical architecture level</text></g><!--MD5=[8ad42e69c823d91e931492f14bc2a1bb]
entity S--><g id="elem_S"><ellipse cx="48.5" cy="30" fill="#F1F1F1" rx="8" ry="8" style="stroke:#181818;stroke-width:0.5;"/><text fill="#000000" font-family="sans-serif" font-size="14" lengthAdjust="spacing" textLength="9" x="44" y="59.9951">S</text></g><!--MD5=[059bc558d4d614208432171da2c60531]
entity Perspective--><g id="elem_Perspective"><ellipse cx="101.5" cy="30" fill="#F1F1F1" rx="8" ry="8" style="stroke:#181818;stroke-width:0.5;"/><text fill="#000000" font-family="sans-serif" font-size="14" lengthAdjust="spacing" textLength="86" x="58.5" y="59.9951">Perspective</text></g><!--MD5=[3ca1d129f135c050c47e0c5d60ac0ab5]
entity Abstraction--><g id="elem_Abstraction"><ellipse cx="48.5" cy="142" fill="#F1F1F1" rx="8" ry="8" style="stroke:#181818;stroke-width:0.5;"/><text fill="#000000" font-family="sans-serif" font-size="14" lengthAdjust="spacing" textLength="85" x="6" y="171.9951">Abstraction</text></g><!--MD5=[92fc09581a2e8efa5a40778f92240757]
link S to Perspective--><g id="link_S_Perspective"><path d="M57.6094,30 C67.4399,30 77.2705,30 87.1011,30 " fill="none" id="S-to-Perspective" style="stroke:#181818;stroke-width:1.0;"/><polygon fill="#181818" points="92.2418,30,83.2418,26,87.2418,30,83.2418,34,92.2418,30" style="stroke:#181818;stroke-width:1.0;"/></g><!--MD5=[b8d5070713ae7e41db9f8cbd523b0290]
link S to Abstraction--><g id="link_S_Abstraction"><path d="M48.5,39.268 C48.5,58.233 48.5,104.9902 48.5,127.9092 " fill="none" id="S-to-Abstraction" style="stroke:#181818;stroke-width:1.0;"/><polygon fill="#181818" points="48.5,132.9351,52.5,123.9351,48.5,127.9351,44.5,123.9351,48.5,132.9351" style="stroke:#181818;stroke-width:1.0;"/></g><!--MD5=[73a1740d86f009a5bae71e4681933291]
link style to infra--><g id="link_style_infra"><path d="M358.532,30 C374.901,30 391.269,30 407.638,30 " fill="none" id="style-infra" style="stroke:#181818;stroke-width:1.0;"/><polygon fill="#181818" points="412.718,30,403.718,26,407.718,30,403.718,34,412.718,30" style="stroke:#181818;stroke-width:1.0;"/><polygon fill="#181818" points="353.438,30,362.438,34,358.438,30,362.438,26,353.438,30" style="stroke:#181818;stroke-width:1.0;"/></g><!--MD5=[4e69d2b7e76b5b7fa860d0953602c6a8]
link infra to tech--><g id="link_infra_tech"><path d="M520.733,58.353 C522.728,75.2381 525.279,96.8215 527.273,113.6972 " fill="none" id="infra-tech" style="stroke:#181818;stroke-width:1.0;"/><polygon fill="#181818" points="527.873,118.773,530.7891,109.3657,527.2862,113.8076,522.8444,110.3047,527.873,118.773" style="stroke:#181818;stroke-width:1.0;"/><polygon fill="#181818" points="520.131,53.26,517.2155,62.6674,520.7181,58.2254,525.1601,61.7281,520.131,53.26" style="stroke:#181818;stroke-width:1.0;"/></g><!--MD5=[86641110d2eba941ec84ef81d91a1b9e]
link style to func--><g id="link_style_func"><path d="M264.516,58.353 C262.674,75.2381 260.319,96.8215 258.478,113.6972 " fill="none" id="style-func" style="stroke:#181818;stroke-width:1.0;"/><polygon fill="#181818" points="257.925,118.773,262.8776,110.26,258.4673,113.8025,254.9248,109.3922,257.925,118.773" style="stroke:#181818;stroke-width:1.0;"/><polygon fill="#181818" points="265.072,53.26,260.1208,61.7739,264.5305,58.2306,268.0738,62.6403,265.072,53.26" style="stroke:#181818;stroke-width:1.0;"/></g><!--MD5=[fbbe95da6dd1bed03935031151f33681]
link func to tech--><g id="link_func_tech"><path d="M382.312,142 C390.479,142 398.646,142 406.812,142 " fill="none" id="func-tech" style="stroke:#181818;stroke-width:1.0;"/><polygon fill="#181818" points="411.897,142,402.897,138,406.897,142,402.897,146,411.897,142" style="stroke:#181818;stroke-width:1.0;"/><polygon fill="#181818" points="377.155,142,386.155,146,382.155,142,386.155,138,377.155,142" style="stroke:#181818;stroke-width:1.0;"/></g><!--MD5=[0d1995f9170d7f4d3457cf2ab09591d8]
link style to tech--><g id="link_style_tech"><path d="M325.028,55.061 C368.904,73.4124 429.066,98.5751 472.948,116.929 " fill="none" id="style-tech" style="stroke:#181818;stroke-width:1.0;"/><polygon fill="#181818" points="477.679,118.9075,470.9184,111.7455,473.0659,116.9788,467.8326,119.1264,477.679,118.9075" style="stroke:#181818;stroke-width:1.0;"/><polygon fill="#181818" points="320.406,53.128,327.1647,60.2918,325.0185,55.0579,330.2525,52.9117,320.406,53.128" style="stroke:#181818;stroke-width:1.0;"/></g><!--MD5=[5b1e5b5abff2bd178dd56c2d4fbcafdf]
link func to infra--><g id="link_func_infra"><path d="M312.823,116.9331 C356.448,98.6172 416.227,73.5191 459.916,55.176 " fill="none" id="func-infra" style="stroke:#181818;stroke-width:1.0;"/><polygon fill="#181818" points="464.796,53.128,454.9492,52.9243,460.1859,55.0637,458.0464,60.3004,464.796,53.128" style="stroke:#181818;stroke-width:1.0;"/><polygon fill="#181818" points="308.12,118.9075,317.9667,119.1113,312.7301,116.9718,314.8696,111.7352,308.12,118.9075" style="stroke:#181818;stroke-width:1.0;"/></g><!--MD5=[9f047d71120e9336a5d74578e8965037]
@startuml
component "architectural style" as style
component "technical infrastructure" as infra
component "functional architecture level" as func
component "technical architecture level" as tech

S - - - - - - - -r-> Perspective
S -d-> Abstraction
style <-r-> infra
infra <-d-> tech
style <-d-> func
func <-r-> tech
style <-[norank]> tech
func <-[norank]> infra
@enduml

PlantUML version 1.2022.8beta2(Unknown compile time)
(GPL source distribution)
Java Runtime: Java(TM) SE Runtime Environment
JVM: Java HotSpot(TM) 64-Bit Server VM
Default Encoding: UTF-8
Language: en
Country: US
--></g></svg>