<?xml version="1.0" encoding="UTF-8" standalone="no"?><svg xmlns="http://www.w3.org/2000/svg" xmlns:xlink="http://www.w3.org/1999/xlink" contentStyleType="text/css" height="651px" preserveAspectRatio="none" style="width:859px;height:651px;background:#FFFFFF;" version="1.1" viewBox="0 0 859 651" width="859px" zoomAndPan="magnify"><defs/><g><rect fill="#FFFFFF" height="169.6641" style="stroke:#181818;stroke-width:1.0;" width="10" x="374.5" y="349.2266"/><line style="stroke:#181818;stroke-width:0.5;stroke-dasharray:5.0,5.0;" x1="63" x2="63" y1="67.2969" y2="573.0234"/><line style="stroke:#181818;stroke-width:0.5;stroke-dasharray:5.0,5.0;" x1="230" x2="230" y1="67.2969" y2="573.0234"/><line style="stroke:#181818;stroke-width:0.5;stroke-dasharray:5.0,5.0;" x1="379" x2="379" y1="67.2969" y2="573.0234"/><line style="stroke:#181818;stroke-width:0.5;stroke-dasharray:5.0,5.0;" x1="660" x2="660" y1="67.2969" y2="573.0234"/><line style="stroke:#181818;stroke-width:0.5;stroke-dasharray:5.0,5.0;" x1="744" x2="744" y1="67.2969" y2="573.0234"/><line style="stroke:#181818;stroke-width:0.5;stroke-dasharray:5.0,5.0;" x1="822" x2="822" y1="67.2969" y2="573.0234"/><rect fill="#E2E2F0" height="30.2969" rx="2.5" ry="2.5" style="stroke:#181818;stroke-width:0.5;" width="116" x="5" y="36"/><text fill="#000000" font-family="sans-serif" font-size="14" lengthAdjust="spacing" textLength="102" x="12" y="55.9951">Lightning App</text><rect fill="#E2E2F0" height="30.2969" rx="2.5" ry="2.5" style="stroke:#181818;stroke-width:0.5;" width="116" x="5" y="572.0234"/><text fill="#000000" font-family="sans-serif" font-size="14" lengthAdjust="spacing" textLength="102" x="12" y="592.0186">Lightning App</text><rect fill="#E2E2F0" height="30.2969" rx="2.5" ry="2.5" style="stroke:#181818;stroke-width:0.5;" width="148" x="156" y="36"/><text fill="#000000" font-family="sans-serif" font-size="14" lengthAdjust="spacing" textLength="134" x="163" y="55.9951">Lightning Gateway</text><rect fill="#E2E2F0" height="30.2969" rx="2.5" ry="2.5" style="stroke:#181818;stroke-width:0.5;" width="148" x="156" y="572.0234"/><text fill="#000000" font-family="sans-serif" font-size="14" lengthAdjust="spacing" textLength="134" x="163" y="592.0186">Lightning Gateway</text><rect fill="#E2E2F0" height="30.2969" rx="2.5" ry="2.5" style="stroke:#181818;stroke-width:0.5;" width="131" x="314" y="36"/><text fill="#000000" font-family="sans-serif" font-size="14" lengthAdjust="spacing" textLength="117" x="321" y="55.9951">SureSmile Order</text><rect fill="#E2E2F0" height="30.2969" rx="2.5" ry="2.5" style="stroke:#181818;stroke-width:0.5;" width="131" x="314" y="572.0234"/><text fill="#000000" font-family="sans-serif" font-size="14" lengthAdjust="spacing" textLength="117" x="321" y="592.0186">SureSmile Order</text><rect fill="#E2E2F0" height="30.2969" rx="2.5" ry="2.5" style="stroke:#181818;stroke-width:0.5;" width="63" x="629" y="36"/><text fill="#000000" font-family="sans-serif" font-size="14" lengthAdjust="spacing" textLength="49" x="636" y="55.9951">ccproc</text><rect fill="#E2E2F0" height="30.2969" rx="2.5" ry="2.5" style="stroke:#181818;stroke-width:0.5;" width="63" x="629" y="572.0234"/><text fill="#000000" font-family="sans-serif" font-size="14" lengthAdjust="spacing" textLength="49" x="636" y="592.0186">ccproc</text><text fill="#000000" font-family="sans-serif" font-size="14" lengthAdjust="spacing" textLength="79" x="702" y="63.9951">Repository</text><path d="M726.5,15 C726.5,5 744.5,5 744.5,5 C744.5,5 762.5,5 762.5,15 L762.5,41 C762.5,51 744.5,51 744.5,51 C744.5,51 726.5,51 726.5,41 L726.5,15 " fill="#E2E2F0" style="stroke:#181818;stroke-width:1.5;"/><path d="M726.5,15 C726.5,25 744.5,25 744.5,25 C744.5,25 762.5,25 762.5,15 " fill="none" style="stroke:#181818;stroke-width:1.5;"/><text fill="#000000" font-family="sans-serif" font-size="14" lengthAdjust="spacing" textLength="79" x="702" y="585.0186">Repository</text><path d="M726.5,598.3203 C726.5,588.3203 744.5,588.3203 744.5,588.3203 C744.5,588.3203 762.5,588.3203 762.5,598.3203 L762.5,624.3203 C762.5,634.3203 744.5,634.3203 744.5,634.3203 C744.5,634.3203 726.5,634.3203 726.5,624.3203 L726.5,598.3203 " fill="#E2E2F0" style="stroke:#181818;stroke-width:1.5;"/><path d="M726.5,598.3203 C726.5,608.3203 744.5,608.3203 744.5,608.3203 C744.5,608.3203 762.5,608.3203 762.5,598.3203 " fill="none" style="stroke:#181818;stroke-width:1.5;"/><text fill="#000000" font-family="sans-serif" font-size="14" lengthAdjust="spacing" textLength="44" x="797" y="63.9951">Entity</text><ellipse cx="822" cy="35" fill="#E2E2F0" rx="12" ry="12" style="stroke:#181818;stroke-width:0.5;"/><line style="stroke:#181818;stroke-width:0.5;" x1="810" x2="834" y1="49" y2="49"/><text fill="#000000" font-family="sans-serif" font-size="14" lengthAdjust="spacing" textLength="44" x="797" y="585.0186">Entity</text><ellipse cx="822" cy="604.3203" fill="#E2E2F0" rx="12" ry="12" style="stroke:#181818;stroke-width:0.5;"/><line style="stroke:#181818;stroke-width:0.5;" x1="810" x2="834" y1="618.3203" y2="618.3203"/><rect fill="#FFFFFF" height="169.6641" style="stroke:#181818;stroke-width:1.0;" width="10" x="374.5" y="349.2266"/><rect fill="#EEEEEE" height="3" style="stroke:#EEEEEE;stroke-width:1.0;" width="852" x="0" y="97.8633"/><line style="stroke:#000000;stroke-width:1.0;" x1="0" x2="852" y1="97.8633" y2="97.8633"/><line style="stroke:#000000;stroke-width:1.0;" x1="0" x2="852" y1="100.8633" y2="100.8633"/><rect fill="#EEEEEE" height="23.1328" style="stroke:#000000;stroke-width:2.0;" width="114" x="369" y="87.2969"/><text fill="#000000" font-family="sans-serif" font-size="13" font-weight="bold" lengthAdjust="spacing" textLength="95" x="375" y="103.3638">Initialization</text><polygon fill="#181818" points="648.5,137.5625,658.5,141.5625,648.5,145.5625,652.5,141.5625" style="stroke:#181818;stroke-width:1.0;"/><line style="stroke:#181818;stroke-width:1.0;" x1="379.5" x2="654.5" y1="141.5625" y2="141.5625"/><text fill="#000000" font-family="sans-serif" font-size="13" lengthAdjust="spacing" textLength="43" x="386.5" y="136.4966">Create</text><line style="stroke:#181818;stroke-width:1.0;" x1="660.5" x2="702.5" y1="155.5625" y2="155.5625"/><line style="stroke:#181818;stroke-width:1.0;" x1="702.5" x2="702.5" y1="155.5625" y2="168.5625"/><line style="stroke:#181818;stroke-width:1.0;" x1="661.5" x2="702.5" y1="168.5625" y2="168.5625"/><polygon fill="#181818" points="671.5,164.5625,661.5,168.5625,671.5,172.5625,667.5,168.5625" style="stroke:#181818;stroke-width:1.0;"/><rect fill="#EEEEEE" height="3" style="stroke:#EEEEEE;stroke-width:1.0;" width="852" x="0" y="197.1289"/><line style="stroke:#000000;stroke-width:1.0;" x1="0" x2="852" y1="197.1289" y2="197.1289"/><line style="stroke:#000000;stroke-width:1.0;" x1="0" x2="852" y1="200.1289" y2="200.1289"/><rect fill="#EEEEEE" height="23.1328" style="stroke:#000000;stroke-width:2.0;" width="198" x="327" y="186.5625"/><text fill="#000000" font-family="sans-serif" font-size="13" font-weight="bold" lengthAdjust="spacing" textLength="179" x="333" y="202.6294">SureSmile Order Create</text><polygon fill="#181818" points="218,236.8281,228,240.8281,218,244.8281,222,240.8281" style="stroke:#181818;stroke-width:1.0;"/><line style="stroke:#181818;stroke-width:1.0;" x1="63" x2="224" y1="240.8281" y2="240.8281"/><text fill="#000000" font-family="sans-serif" font-size="13" lengthAdjust="spacing" textLength="143" x="70" y="235.7622">CreateSureSmileOrder</text><polygon fill="#181818" points="367.5,265.9609,377.5,269.9609,367.5,273.9609,371.5,269.9609" style="stroke:#181818;stroke-width:1.0;"/><line style="stroke:#181818;stroke-width:1.0;" x1="230" x2="373.5" y1="269.9609" y2="269.9609"/><text fill="#000000" font-family="sans-serif" font-size="13" lengthAdjust="spacing" textLength="79" x="237" y="264.895">CreateOrder</text><line style="stroke:#181818;stroke-width:1.0;" x1="379.5" x2="421.5" y1="299.0938" y2="299.0938"/><line style="stroke:#181818;stroke-width:1.0;" x1="421.5" x2="421.5" y1="299.0938" y2="312.0938"/><line style="stroke:#181818;stroke-width:1.0;" x1="380.5" x2="421.5" y1="312.0938" y2="312.0938"/><polygon fill="#181818" points="390.5,308.0938,380.5,312.0938,390.5,316.0938,386.5,312.0938" style="stroke:#181818;stroke-width:1.0;"/><text fill="#000000" font-family="sans-serif" font-size="13" lengthAdjust="spacing" textLength="77" x="386.5" y="294.0278">createOrder</text><line style="stroke:#181818;stroke-width:1.0;" x1="379.5" x2="426.5" y1="336.2266" y2="336.2266"/><line style="stroke:#181818;stroke-width:1.0;" x1="426.5" x2="426.5" y1="336.2266" y2="349.2266"/><line style="stroke:#181818;stroke-width:1.0;" x1="385.5" x2="426.5" y1="349.2266" y2="349.2266"/><polygon fill="#181818" points="395.5,345.2266,385.5,349.2266,395.5,353.2266,391.5,349.2266" style="stroke:#181818;stroke-width:1.0;"/><text fill="#000000" font-family="sans-serif" font-size="13" lengthAdjust="spacing" textLength="237" x="391.5" y="331.1606">createSureSmileCreateOrderRequest</text><polygon fill="#181818" points="648.5,379.3594,658.5,383.3594,648.5,387.3594,652.5,383.3594" style="stroke:#181818;stroke-width:1.0;"/><line style="stroke:#181818;stroke-width:1.0;" x1="384.5" x2="654.5" y1="383.3594" y2="383.3594"/><text fill="#000000" font-family="sans-serif" font-size="13" lengthAdjust="spacing" textLength="252" x="391.5" y="378.2935">AddActionSingleton(actionCreateOrder)</text><polygon fill="#181818" points="810,408.4922,820,412.4922,810,416.4922,814,412.4922" style="stroke:#181818;stroke-width:1.0;"/><line style="stroke:#181818;stroke-width:1.0;" x1="384.5" x2="816" y1="412.4922" y2="412.4922"/><text fill="#000000" font-family="sans-serif" font-size="13" lengthAdjust="spacing" textLength="115" x="391.5" y="407.4263">parseDentalExam</text><line style="stroke:#181818;stroke-width:1.0;" x1="384.5" x2="426.5" y1="441.625" y2="441.625"/><line style="stroke:#181818;stroke-width:1.0;" x1="426.5" x2="426.5" y1="441.625" y2="454.625"/><line style="stroke:#181818;stroke-width:1.0;" x1="385.5" x2="426.5" y1="454.625" y2="454.625"/><polygon fill="#181818" points="395.5,450.625,385.5,454.625,395.5,458.625,391.5,454.625" style="stroke:#181818;stroke-width:1.0;"/><text fill="#000000" font-family="sans-serif" font-size="13" lengthAdjust="spacing" textLength="110" x="391.5" y="436.5591">getPatientDetails</text><polygon fill="#181818" points="810,479.7578,820,483.7578,810,487.7578,814,483.7578" style="stroke:#181818;stroke-width:1.0;"/><line style="stroke:#181818;stroke-width:1.0;" x1="384.5" x2="816" y1="483.7578" y2="483.7578"/><text fill="#000000" font-family="sans-serif" font-size="13" lengthAdjust="spacing" textLength="116" x="391.5" y="478.6919">gatherDocuments</text><line style="stroke:#181818;stroke-width:1.0;" x1="384.5" x2="426.5" y1="517.8906" y2="517.8906"/><line style="stroke:#181818;stroke-width:1.0;" x1="426.5" x2="426.5" y1="517.8906" y2="530.8906"/><line style="stroke:#181818;stroke-width:1.0;" x1="379.5" x2="426.5" y1="530.8906" y2="530.8906"/><polygon fill="#181818" points="389.5,526.8906,379.5,530.8906,389.5,534.8906,385.5,530.8906" style="stroke:#181818;stroke-width:1.0;"/><text fill="#000000" font-family="sans-serif" font-size="13" lengthAdjust="spacing" textLength="96" x="391.5" y="512.8247">getSignedURLs</text><polygon fill="#181818" points="648.5,551.0234,658.5,555.0234,648.5,559.0234,652.5,555.0234" style="stroke:#181818;stroke-width:1.0;"/><line style="stroke:#181818;stroke-width:1.0;" x1="379.5" x2="654.5" y1="555.0234" y2="555.0234"/><text fill="#000000" font-family="sans-serif" font-size="13" lengthAdjust="spacing" textLength="104" x="386.5" y="549.9575">ProcessFastlane</text><!--MD5=[9c9e893d59199cb6a8fc9cf21fafa0f1]
@startuml
participant "Lightning App" as ligapp
participant "Lightning Gateway" as gateway
participant "SureSmile Order" as ssmile
participant "ccproc" as ccproc
database "Repository" as dorepo
entity "Entity" as doent

== Initialization ==
ssmile -> ccproc : Create
ccproc -> ccproc : 
== SureSmile Order Create ==
ligapp -> gateway : CreateSureSmileOrder
gateway -> ssmile : CreateOrder
ssmile -> ssmile : createOrder
ssmile -> ssmile : createSureSmileCreateOrderRequest
activate ssmile
ssmile -> ccproc : AddActionSingleton(actionCreateOrder)
ssmile -> doent : parseDentalExam
ssmile -> ssmile : getPatientDetails
ssmile -> doent : gatherDocuments
ssmile -> ssmile : getSignedURLs
deactivate ssmile
ssmile -> ccproc : ProcessFastlane
@enduml

PlantUML version 1.2022.8beta2(Unknown compile time)
(GPL source distribution)
Java Runtime: Java(TM) SE Runtime Environment
JVM: Java HotSpot(TM) 64-Bit Server VM
Default Encoding: UTF-8
Language: en
Country: US
--></g></svg>