<?xml version="1.0" encoding="UTF-8" standalone="no"?><svg xmlns="http://www.w3.org/2000/svg" xmlns:xlink="http://www.w3.org/1999/xlink" contentStyleType="text/css" height="603px" preserveAspectRatio="none" style="width:1324px;height:603px;background:#FFFFFF;" version="1.1" viewBox="0 0 1324 603" width="1324px" zoomAndPan="magnify"><defs/><g><!--MD5=[b5eedda6b097e155907eefaed646923e]
entity pq--><g id="elem_pq"><rect fill="#F1F1F1" height="46.4883" rx="2.5" ry="2.5" style="stroke:#181818;stroke-width:0.5;" width="169" x="620" y="7"/><rect fill="#F1F1F1" height="10" style="stroke:#181818;stroke-width:0.5;" width="15" x="769" y="12"/><rect fill="#F1F1F1" height="2" style="stroke:#181818;stroke-width:0.5;" width="4" x="767" y="14"/><rect fill="#F1F1F1" height="2" style="stroke:#181818;stroke-width:0.5;" width="4" x="767" y="18"/><text fill="#000000" font-family="sans-serif" font-size="14" lengthAdjust="spacing" textLength="129" x="635" y="40.5352">SW Product Quality</text></g><!--MD5=[b9586600103814a499497f8f31890a4f]
entity fs--><g id="elem_fs"><rect fill="#F1F1F1" height="46.4883" rx="2.5" ry="2.5" style="stroke:#181818;stroke-width:0.5;" width="179" x="7" y="113"/><rect fill="#F1F1F1" height="10" style="stroke:#181818;stroke-width:0.5;" width="15" x="166" y="118"/><rect fill="#F1F1F1" height="2" style="stroke:#181818;stroke-width:0.5;" width="4" x="164" y="120"/><rect fill="#F1F1F1" height="2" style="stroke:#181818;stroke-width:0.5;" width="4" x="164" y="124"/><text fill="#000000" font-family="sans-serif" font-size="14" lengthAdjust="spacing" textLength="139" x="22" y="146.5352">functional suitability</text></g><!--MD5=[fde20e3f6f020ece7410793cf03e6186]
entity fsd--><g id="elem_fsd"><rect fill="#F1F1F1" height="79.4648" rx="2.5" ry="2.5" style="stroke:#181818;stroke-width:0.5;" width="164" x="14.5" y="235.5"/><rect fill="#F1F1F1" height="10" style="stroke:#181818;stroke-width:0.5;" width="15" x="158.5" y="240.5"/><rect fill="#F1F1F1" height="2" style="stroke:#181818;stroke-width:0.5;" width="4" x="156.5" y="242.5"/><rect fill="#F1F1F1" height="2" style="stroke:#181818;stroke-width:0.5;" width="4" x="156.5" y="246.5"/><text fill="#000000" font-family="sans-serif" font-size="14" lengthAdjust="spacing" textLength="91" x="29.5" y="269.0352">- correctness</text><text fill="#000000" font-family="sans-serif" font-size="14" lengthAdjust="spacing" textLength="124" x="29.5" y="285.5234">- appropriateness</text><text fill="#000000" font-family="sans-serif" font-size="14" lengthAdjust="spacing" textLength="106" x="29.5" y="302.0117">- completeness</text></g><!--MD5=[a9de4b493404c98fbbf58ebd734809c4]
entity rb--><g id="elem_rb"><rect fill="#F1F1F1" height="46.4883" rx="2.5" ry="2.5" style="stroke:#181818;stroke-width:0.5;" width="103" x="221" y="113"/><rect fill="#F1F1F1" height="10" style="stroke:#181818;stroke-width:0.5;" width="15" x="304" y="118"/><rect fill="#F1F1F1" height="2" style="stroke:#181818;stroke-width:0.5;" width="4" x="302" y="120"/><rect fill="#F1F1F1" height="2" style="stroke:#181818;stroke-width:0.5;" width="4" x="302" y="124"/><text fill="#000000" font-family="sans-serif" font-size="14" lengthAdjust="spacing" textLength="63" x="236" y="146.5352">reliability</text></g><!--MD5=[9b398261208439019e9cc383f03bbbbc]
entity rbd--><g id="elem_rbd"><rect fill="#F1F1F1" height="95.9531" rx="2.5" ry="2.5" style="stroke:#181818;stroke-width:0.5;" width="151" x="197" y="476.5"/><rect fill="#F1F1F1" height="10" style="stroke:#181818;stroke-width:0.5;" width="15" x="328" y="481.5"/><rect fill="#F1F1F1" height="2" style="stroke:#181818;stroke-width:0.5;" width="4" x="326" y="483.5"/><rect fill="#F1F1F1" height="2" style="stroke:#181818;stroke-width:0.5;" width="4" x="326" y="487.5"/><text fill="#000000" font-family="sans-serif" font-size="14" lengthAdjust="spacing" textLength="84" x="212" y="510.0352">- availability</text><text fill="#000000" font-family="sans-serif" font-size="14" lengthAdjust="spacing" textLength="111" x="212" y="526.5234">- fault tolerance</text><text fill="#000000" font-family="sans-serif" font-size="14" lengthAdjust="spacing" textLength="104" x="212" y="543.0117">- recoverability</text><text fill="#000000" font-family="sans-serif" font-size="14" lengthAdjust="spacing" textLength="69" x="212" y="559.5">- maturity</text></g><!--MD5=[f9eb522a468f53158c0e9836a3a121f1]
entity pe--><g id="elem_pe"><rect fill="#F1F1F1" height="46.4883" rx="2.5" ry="2.5" style="stroke:#181818;stroke-width:0.5;" width="196" x="359.5" y="113"/><rect fill="#F1F1F1" height="10" style="stroke:#181818;stroke-width:0.5;" width="15" x="535.5" y="118"/><rect fill="#F1F1F1" height="2" style="stroke:#181818;stroke-width:0.5;" width="4" x="533.5" y="120"/><rect fill="#F1F1F1" height="2" style="stroke:#181818;stroke-width:0.5;" width="4" x="533.5" y="124"/><text fill="#000000" font-family="sans-serif" font-size="14" lengthAdjust="spacing" textLength="156" x="374.5" y="146.5352">performance efficiency</text></g><!--MD5=[30bbf48f2800ace3ab3817390d6fef04]
entity ped--><g id="elem_ped"><rect fill="#F1F1F1" height="79.4648" rx="2.5" ry="2.5" style="stroke:#181818;stroke-width:0.5;" width="185" x="365" y="235.5"/><rect fill="#F1F1F1" height="10" style="stroke:#181818;stroke-width:0.5;" width="15" x="530" y="240.5"/><rect fill="#F1F1F1" height="2" style="stroke:#181818;stroke-width:0.5;" width="4" x="528" y="242.5"/><rect fill="#F1F1F1" height="2" style="stroke:#181818;stroke-width:0.5;" width="4" x="528" y="246.5"/><text fill="#000000" font-family="sans-serif" font-size="14" lengthAdjust="spacing" textLength="106" x="380" y="269.0352">- time behavior</text><text fill="#000000" font-family="sans-serif" font-size="14" lengthAdjust="spacing" textLength="145" x="380" y="285.5234">- resource utilization</text><text fill="#000000" font-family="sans-serif" font-size="14" lengthAdjust="spacing" textLength="67" x="380" y="302.0117">- capacity</text></g><!--MD5=[ab26f689a3422ec2d50d6ddf0993bd5e]
entity ub--><g id="elem_ub"><rect fill="#F1F1F1" height="46.4883" rx="2.5" ry="2.5" style="stroke:#181818;stroke-width:0.5;" width="97" x="591" y="113"/><rect fill="#F1F1F1" height="10" style="stroke:#181818;stroke-width:0.5;" width="15" x="668" y="118"/><rect fill="#F1F1F1" height="2" style="stroke:#181818;stroke-width:0.5;" width="4" x="666" y="120"/><rect fill="#F1F1F1" height="2" style="stroke:#181818;stroke-width:0.5;" width="4" x="666" y="124"/><text fill="#000000" font-family="sans-serif" font-size="14" lengthAdjust="spacing" textLength="57" x="606" y="146.5352">usability</text></g><!--MD5=[753fd20ec1cbae36517337a56aa32a68]
entity ubd--><g id="elem_ubd"><rect fill="#F1F1F1" height="145.418" rx="2.5" ry="2.5" style="stroke:#181818;stroke-width:0.5;" width="196" x="539.5" y="452"/><rect fill="#F1F1F1" height="10" style="stroke:#181818;stroke-width:0.5;" width="15" x="715.5" y="457"/><rect fill="#F1F1F1" height="2" style="stroke:#181818;stroke-width:0.5;" width="4" x="713.5" y="459"/><rect fill="#F1F1F1" height="2" style="stroke:#181818;stroke-width:0.5;" width="4" x="713.5" y="463"/><text fill="#000000" font-family="sans-serif" font-size="14" lengthAdjust="spacing" textLength="124" x="554.5" y="485.5352">- appropriateness</text><text fill="#000000" font-family="sans-serif" font-size="14" lengthAdjust="spacing" textLength="113" x="554.5" y="502.0234">- recognizability</text><text fill="#000000" font-family="sans-serif" font-size="14" lengthAdjust="spacing" textLength="88" x="554.5" y="518.5117">- learnability</text><text fill="#000000" font-family="sans-serif" font-size="14" lengthAdjust="spacing" textLength="85" x="554.5" y="535">- operability</text><text fill="#000000" font-family="sans-serif" font-size="14" lengthAdjust="spacing" textLength="156" x="554.5" y="551.4883">- user error protection</text><text fill="#000000" font-family="sans-serif" font-size="14" lengthAdjust="spacing" textLength="90" x="554.5" y="567.9766">- UI asthetics</text><text fill="#000000" font-family="sans-serif" font-size="14" lengthAdjust="spacing" textLength="93" x="554.5" y="584.4648">- accessibility</text></g><!--MD5=[f6c8693f2725baec96dbc257309cbcf0]
entity sc--><g id="elem_sc"><rect fill="#F1F1F1" height="46.4883" rx="2.5" ry="2.5" style="stroke:#181818;stroke-width:0.5;" width="93" x="723" y="113"/><rect fill="#F1F1F1" height="10" style="stroke:#181818;stroke-width:0.5;" width="15" x="796" y="118"/><rect fill="#F1F1F1" height="2" style="stroke:#181818;stroke-width:0.5;" width="4" x="794" y="120"/><rect fill="#F1F1F1" height="2" style="stroke:#181818;stroke-width:0.5;" width="4" x="794" y="124"/><text fill="#000000" font-family="sans-serif" font-size="14" lengthAdjust="spacing" textLength="53" x="738" y="146.5352">security</text></g><!--MD5=[b9ec2eb45fab1aee8a22216b435a84a0]
entity scd--><g id="elem_scd"><rect fill="#F1F1F1" height="112.4414" rx="2.5" ry="2.5" style="stroke:#181818;stroke-width:0.5;" width="159" x="691" y="219"/><rect fill="#F1F1F1" height="10" style="stroke:#181818;stroke-width:0.5;" width="15" x="830" y="224"/><rect fill="#F1F1F1" height="2" style="stroke:#181818;stroke-width:0.5;" width="4" x="828" y="226"/><rect fill="#F1F1F1" height="2" style="stroke:#181818;stroke-width:0.5;" width="4" x="828" y="230"/><text fill="#000000" font-family="sans-serif" font-size="14" lengthAdjust="spacing" textLength="105" x="706" y="252.5352">- confidentality</text><text fill="#000000" font-family="sans-serif" font-size="14" lengthAdjust="spacing" textLength="69" x="706" y="269.0234">- integrity</text><text fill="#000000" font-family="sans-serif" font-size="14" lengthAdjust="spacing" textLength="119" x="706" y="285.5117">- non-reputation</text><text fill="#000000" font-family="sans-serif" font-size="14" lengthAdjust="spacing" textLength="107" x="706" y="302">- accountability</text><text fill="#000000" font-family="sans-serif" font-size="14" lengthAdjust="spacing" textLength="92" x="706" y="318.4883">- authenticity</text></g><!--MD5=[3fb52b275186d0d1b994a3e0dd6e0b1d]
entity cp--><g id="elem_cp"><rect fill="#F1F1F1" height="46.4883" rx="2.5" ry="2.5" style="stroke:#181818;stroke-width:0.5;" width="128" x="851.5" y="113"/><rect fill="#F1F1F1" height="10" style="stroke:#181818;stroke-width:0.5;" width="15" x="959.5" y="118"/><rect fill="#F1F1F1" height="2" style="stroke:#181818;stroke-width:0.5;" width="4" x="957.5" y="120"/><rect fill="#F1F1F1" height="2" style="stroke:#181818;stroke-width:0.5;" width="4" x="957.5" y="124"/><text fill="#000000" font-family="sans-serif" font-size="14" lengthAdjust="spacing" textLength="88" x="866.5" y="146.5352">compatibility</text></g><!--MD5=[9e1c6d18399b6982db401374d7674f19]
entity cpd--><g id="elem_cpd"><rect fill="#F1F1F1" height="62.9766" rx="2.5" ry="2.5" style="stroke:#181818;stroke-width:0.5;" width="157" x="837" y="493"/><rect fill="#F1F1F1" height="10" style="stroke:#181818;stroke-width:0.5;" width="15" x="974" y="498"/><rect fill="#F1F1F1" height="2" style="stroke:#181818;stroke-width:0.5;" width="4" x="972" y="500"/><rect fill="#F1F1F1" height="2" style="stroke:#181818;stroke-width:0.5;" width="4" x="972" y="504"/><text fill="#000000" font-family="sans-serif" font-size="14" lengthAdjust="spacing" textLength="101" x="852" y="526.5352">- co-existence</text><text fill="#000000" font-family="sans-serif" font-size="14" lengthAdjust="spacing" textLength="117" x="852" y="543.0234">- interoperability</text></g><!--MD5=[99c5416311fbf9d118be657efd773f39]
entity ma--><g id="elem_ma"><rect fill="#F1F1F1" height="46.4883" rx="2.5" ry="2.5" style="stroke:#181818;stroke-width:0.5;" width="141" x="1015" y="113"/><rect fill="#F1F1F1" height="10" style="stroke:#181818;stroke-width:0.5;" width="15" x="1136" y="118"/><rect fill="#F1F1F1" height="2" style="stroke:#181818;stroke-width:0.5;" width="4" x="1134" y="120"/><rect fill="#F1F1F1" height="2" style="stroke:#181818;stroke-width:0.5;" width="4" x="1134" y="124"/><text fill="#000000" font-family="sans-serif" font-size="14" lengthAdjust="spacing" textLength="101" x="1030" y="146.5352">maintainability</text></g><!--MD5=[8396015245896a11201a608cc7692d52]
entity mad--><g id="elem_mad"><rect fill="#F1F1F1" height="112.4414" rx="2.5" ry="2.5" style="stroke:#181818;stroke-width:0.5;" width="137" x="1017" y="219"/><rect fill="#F1F1F1" height="10" style="stroke:#181818;stroke-width:0.5;" width="15" x="1134" y="224"/><rect fill="#F1F1F1" height="2" style="stroke:#181818;stroke-width:0.5;" width="4" x="1132" y="226"/><rect fill="#F1F1F1" height="2" style="stroke:#181818;stroke-width:0.5;" width="4" x="1132" y="230"/><text fill="#000000" font-family="sans-serif" font-size="14" lengthAdjust="spacing" textLength="86" x="1032" y="252.5352">- modularity</text><text fill="#000000" font-family="sans-serif" font-size="14" lengthAdjust="spacing" textLength="83" x="1032" y="269.0234">- reusability</text><text fill="#000000" font-family="sans-serif" font-size="14" lengthAdjust="spacing" textLength="97" x="1032" y="285.5117">- analyzability</text><text fill="#000000" font-family="sans-serif" font-size="14" lengthAdjust="spacing" textLength="97" x="1032" y="302">- modifiability</text><text fill="#000000" font-family="sans-serif" font-size="14" lengthAdjust="spacing" textLength="78" x="1032" y="318.4883">- testability</text></g><!--MD5=[5941d7bf6796b2421daf7f00e34c622b]
entity pt--><g id="elem_pt"><rect fill="#F1F1F1" height="46.4883" rx="2.5" ry="2.5" style="stroke:#181818;stroke-width:0.5;" width="110" x="1191.5" y="113"/><rect fill="#F1F1F1" height="10" style="stroke:#181818;stroke-width:0.5;" width="15" x="1281.5" y="118"/><rect fill="#F1F1F1" height="2" style="stroke:#181818;stroke-width:0.5;" width="4" x="1279.5" y="120"/><rect fill="#F1F1F1" height="2" style="stroke:#181818;stroke-width:0.5;" width="4" x="1279.5" y="124"/><text fill="#000000" font-family="sans-serif" font-size="14" lengthAdjust="spacing" textLength="70" x="1206.5" y="146.5352">portability</text></g><!--MD5=[84a71beea9dff19a51473886f9da811b]
entity ptd--><g id="elem_ptd"><rect fill="#F1F1F1" height="79.4648" rx="2.5" ry="2.5" style="stroke:#181818;stroke-width:0.5;" width="143" x="1175" y="485"/><rect fill="#F1F1F1" height="10" style="stroke:#181818;stroke-width:0.5;" width="15" x="1298" y="490"/><rect fill="#F1F1F1" height="2" style="stroke:#181818;stroke-width:0.5;" width="4" x="1296" y="492"/><rect fill="#F1F1F1" height="2" style="stroke:#181818;stroke-width:0.5;" width="4" x="1296" y="496"/><text fill="#000000" font-family="sans-serif" font-size="14" lengthAdjust="spacing" textLength="92" x="1190" y="518.5352">- adaptability</text><text fill="#000000" font-family="sans-serif" font-size="14" lengthAdjust="spacing" textLength="99" x="1190" y="535.0234">- installatbility</text><text fill="#000000" font-family="sans-serif" font-size="14" lengthAdjust="spacing" textLength="103" x="1190" y="551.5117">- replaceability</text></g><!--MD5=[3546d3e166465fe864e93a8e237dc66c]
reverse link pq to fs--><g id="link_pq_fs"><path d="M614.63,44.58 C514.22,60.02 346.91,86.53 203.5,113 C197.81,114.05 191.96,115.16 186.06,116.31 " fill="none" id="pq-backto-fs" style="stroke:#181818;stroke-width:1.0;"/><polygon fill="#181818" points="619.66,43.81,610.1508,41.2457,614.7198,44.581,611.3845,49.15,619.66,43.81" style="stroke:#181818;stroke-width:1.0;"/></g><!--MD5=[1dd74a21d98bb03e6dc58f36689c102a]
reverse link fs to fsd--><g id="link_fs_fsd"><path d="M96.5,164.02 C96.5,184.42 96.5,212.68 96.5,235.45 " fill="none" id="fs-backto-fsd" style="stroke:#181818;stroke-width:1.0;"/><polygon fill="#181818" points="96.5,159.01,92.5,168.01,96.5,164.01,100.5,168.01,96.5,159.01" style="stroke:#181818;stroke-width:1.0;"/></g><!--MD5=[aacf164928d0ce5f73664a3d1387afb7]
reverse link pq to rb--><g id="link_pq_rb"><path d="M614.38,49.09 C540.61,64.45 433.74,87.93 341.5,113 C335.92,114.52 330.12,116.2 324.35,117.94 " fill="none" id="pq-backto-rb" style="stroke:#181818;stroke-width:1.0;"/><polygon fill="#181818" points="619.64,48,610.016,45.9073,614.7438,49.0135,611.6376,53.7413,619.64,48" style="stroke:#181818;stroke-width:1.0;"/></g><!--MD5=[bdec33b74198e98ac8efd61316d0ca30]
reverse link rb to rbd--><g id="link_rb_rbd"><path d="M272.5,164.43 C272.5,229.72 272.5,394.93 272.5,476.49 " fill="none" id="rb-backto-rbd" style="stroke:#181818;stroke-width:1.0;"/><polygon fill="#181818" points="272.5,159.17,268.5,168.17,272.5,164.17,276.5,168.17,272.5,159.17" style="stroke:#181818;stroke-width:1.0;"/></g><!--MD5=[321bc8d8de40515ba9b1ee7cba3e4e36]
reverse link pq to pe--><g id="link_pq_pe"><path d="M647.38,55.05 C605.88,72.52 550.15,95.99 509.81,112.98 " fill="none" id="pq-backto-pe" style="stroke:#181818;stroke-width:1.0;"/><polygon fill="#181818" points="652.12,53.06,642.2731,52.866,647.5118,55.0003,645.3775,60.2391,652.12,53.06" style="stroke:#181818;stroke-width:1.0;"/></g><!--MD5=[7a904f7145224c2fb4b4a1590ee911f2]
reverse link pe to ped--><g id="link_pe_ped"><path d="M457.5,164.02 C457.5,184.42 457.5,212.68 457.5,235.45 " fill="none" id="pe-backto-ped" style="stroke:#181818;stroke-width:1.0;"/><polygon fill="#181818" points="457.5,159.01,453.5,168.01,457.5,164.01,461.5,168.01,457.5,159.01" style="stroke:#181818;stroke-width:1.0;"/></g><!--MD5=[62f12882f787ada6b90b2a71989f68e5]
reverse link pq to ub--><g id="link_pq_ub"><path d="M688.05,57.31 C677.31,74.51 663.43,96.71 653.26,112.98 " fill="none" id="pq-backto-ub" style="stroke:#181818;stroke-width:1.0;"/><polygon fill="#181818" points="690.72,53.06,682.5664,58.5843,688.0764,57.304,689.3568,62.8141,690.72,53.06" style="stroke:#181818;stroke-width:1.0;"/></g><!--MD5=[5c9a3782c4023ac342499f15c1f19044]
reverse link ub to ubd--><g id="link_ub_ubd"><path d="M639.36,164.29 C639.05,223.42 638.32,365.01 637.87,451.72 " fill="none" id="ub-backto-ubd" style="stroke:#181818;stroke-width:1.0;"/><polygon fill="#181818" points="639.39,159.17,635.3386,168.147,639.3614,164.1699,643.3385,168.1927,639.39,159.17" style="stroke:#181818;stroke-width:1.0;"/></g><!--MD5=[ba86ce8f07dbbde935bb5426d391eff8]
reverse link pq to sc--><g id="link_pq_sc"><path d="M720.95,57.31 C731.69,74.51 745.57,96.71 755.74,112.98 " fill="none" id="pq-backto-sc" style="stroke:#181818;stroke-width:1.0;"/><polygon fill="#181818" points="718.28,53.06,719.6432,62.8141,720.9236,57.304,726.4336,58.5843,718.28,53.06" style="stroke:#181818;stroke-width:1.0;"/></g><!--MD5=[b55ad60e159c5f54776240942ee085e9]
reverse link sc to scd--><g id="link_sc_scd"><path d="M769.7,164.14 C769.81,179.8 769.96,200.07 770.1,218.93 " fill="none" id="sc-backto-scd" style="stroke:#181818;stroke-width:1.0;"/><polygon fill="#181818" points="769.66,159.01,765.7115,168.0327,769.6886,164.0099,773.7114,167.987,769.66,159.01" style="stroke:#181818;stroke-width:1.0;"/></g><!--MD5=[baaf27410b62e02995c67d77d6402785]
reverse link pq to cp--><g id="link_pq_cp"><path d="M753.94,55.37 C789.32,72.81 836.56,96.09 870.82,112.98 " fill="none" id="pq-backto-cp" style="stroke:#181818;stroke-width:1.0;"/><polygon fill="#181818" points="749.25,53.06,755.5497,60.6305,753.7335,55.2732,759.0909,53.4569,749.25,53.06" style="stroke:#181818;stroke-width:1.0;"/></g><!--MD5=[a89636c74e5a3e4d9b5a8ebe1f81a89b]
reverse link cp to cpd--><g id="link_cp_cpd"><path d="M915.5,164.4 C915.5,234.41 915.5,419.49 915.5,492.89 " fill="none" id="cp-backto-cpd" style="stroke:#181818;stroke-width:1.0;"/><polygon fill="#181818" points="915.5,159.17,911.5,168.17,915.5,164.17,919.5,168.17,915.5,159.17" style="stroke:#181818;stroke-width:1.0;"/></g><!--MD5=[0ce0301ca8c1159c7973ef332e432653]
reverse link pq to ma--><g id="link_pq_ma"><path d="M790.13,54.37 C857.84,72.86 951.23,98.35 1014.75,115.69 " fill="none" id="pq-backto-ma" style="stroke:#181818;stroke-width:1.0;"/><polygon fill="#181818" points="785.3,53.06,792.9335,59.2833,790.1245,54.3732,795.0346,51.5641,785.3,53.06" style="stroke:#181818;stroke-width:1.0;"/></g><!--MD5=[6e862e961d4b23f446a09c7a954003be]
reverse link ma to mad--><g id="link_ma_mad"><path d="M1085.5,164.14 C1085.5,179.8 1085.5,200.07 1085.5,218.93 " fill="none" id="ma-backto-mad" style="stroke:#181818;stroke-width:1.0;"/><polygon fill="#181818" points="1085.5,159.01,1081.5,168.01,1085.5,164.01,1089.5,168.01,1085.5,159.01" style="stroke:#181818;stroke-width:1.0;"/></g><!--MD5=[012aee53a7f21be44d3b5ed5e07731af]
reverse link pq to pt--><g id="link_pq_pt"><path d="M794.46,43.46 C889.35,57.36 1042.93,82.03 1173.5,113 C1179.3,114.37 1185.31,115.95 1191.29,117.6 " fill="none" id="pq-backto-pt" style="stroke:#181818;stroke-width:1.0;"/><polygon fill="#181818" points="789.42,42.72,797.7427,47.9862,794.3669,43.4471,798.906,40.0712,789.42,42.72" style="stroke:#181818;stroke-width:1.0;"/></g><!--MD5=[409f288267d0490468d2f79daf18daf2]
reverse link pt to ptd--><g id="link_pt_ptd"><path d="M1246.5,164.21 C1246.5,231.63 1246.5,406.55 1246.5,484.74 " fill="none" id="pt-backto-ptd" style="stroke:#181818;stroke-width:1.0;"/><polygon fill="#181818" points="1246.5,159.17,1242.5,168.17,1246.5,164.17,1250.5,168.17,1246.5,159.17" style="stroke:#181818;stroke-width:1.0;"/></g><!--MD5=[ddec915d708ea1663cd7da3327e1e7d9]
@startuml
component "SW Product Quality" as pq
component "functional suitability" as fs
component fsd [
    - correctness
    - appropriateness
    - completeness
]
component "reliability" as rb
component rbd [
    - availability
    - fault tolerance
    - recoverability
    - maturity
]
component "performance efficiency" as pe
component ped [
    - time behavior
    - resource utilization
    - capacity
]
component "usability" as ub
component ubd [
    - appropriateness
    - recognizability
    - learnability
    - operability
    - user error protection
    - UI asthetics
    - accessibility
]
component "security" as sc
component scd [
    - confidentality
    - integrity
    - non-reputation
    - accountability
    - authenticity
]
component "compatibility" as cp
component cpd [
    - co-existence
    - interoperability
]
component "maintainability" as ma
component mad [
    - modularity
    - reusability
    - analyzability
    - modifiability
    - testability
]
component "portability" as pt
component ptd [
    - adaptability
    - installatbility
    - replaceability
]


pq <-d- fs
fs <-d- fsd
pq <-d- rb
rb <- -d- - rbd
pq <-d- pe
pe <-d- ped
pq <-d- ub
ub <- -d- - ubd
pq <-d- sc
sc <-d- scd
pq <-d- cp
cp <- -d- - cpd
pq <-d- ma
ma <-d- mad
pq <-d- pt
pt <- -d- - ptd
@enduml

PlantUML version 1.2022.7(Mon Aug 22 19:01:30 CEST 2022)
(GPL source distribution)
Java Runtime: Java(TM) SE Runtime Environment
JVM: Java HotSpot(TM) 64-Bit Server VM
Default Encoding: UTF-8
Language: en
Country: CH
--></g></svg>