<?xml version="1.0" encoding="UTF-8" standalone="no"?><svg xmlns="http://www.w3.org/2000/svg" xmlns:xlink="http://www.w3.org/1999/xlink" contentStyleType="text/css" height="273px" preserveAspectRatio="none" style="width:1184px;height:273px;background:#FFFFFF;" version="1.1" viewBox="0 0 1184 273" width="1184px" zoomAndPan="magnify"><defs/><g><!--MD5=[efb841671d31ca6fdfa2e98243b89d9c]
entity bb--><g id="elem_bb"><rect fill="#F1F1F1" height="46.2969" rx="2.5" ry="2.5" style="stroke:#181818;stroke-width:0.5;" width="148" x="474.5" y="7"/><rect fill="#F1F1F1" height="10" style="stroke:#181818;stroke-width:0.5;" width="15" x="602.5" y="12"/><rect fill="#F1F1F1" height="2" style="stroke:#181818;stroke-width:0.5;" width="4" x="600.5" y="14"/><rect fill="#F1F1F1" height="2" style="stroke:#181818;stroke-width:0.5;" width="4" x="600.5" y="18"/><text fill="#000000" font-family="sans-serif" font-size="14" lengthAdjust="spacing" textLength="108" x="489.5" y="39.9951">building blocks</text></g><!--MD5=[ce016c6a9e16f6400cc019c4355cccf7]
entity pkg--><g id="elem_pkg"><rect fill="#F1F1F1" height="46.2969" rx="2.5" ry="2.5" style="stroke:#181818;stroke-width:0.5;" width="108" x="127.5" y="114"/><rect fill="#F1F1F1" height="10" style="stroke:#181818;stroke-width:0.5;" width="15" x="215.5" y="119"/><rect fill="#F1F1F1" height="2" style="stroke:#181818;stroke-width:0.5;" width="4" x="213.5" y="121"/><rect fill="#F1F1F1" height="2" style="stroke:#181818;stroke-width:0.5;" width="4" x="213.5" y="125"/><text fill="#000000" font-family="sans-serif" font-size="14" lengthAdjust="spacing" textLength="68" x="142.5" y="146.9951">packages</text></g><!--MD5=[4e23fbe61dd2bcf2a44d4416d0bd1f40]
entity cons--><g id="elem_cons"><rect fill="#F1F1F1" height="46.2969" rx="2.5" ry="2.5" style="stroke:#181818;stroke-width:0.5;" width="218" x="270.5" y="114"/><rect fill="#F1F1F1" height="10" style="stroke:#181818;stroke-width:0.5;" width="15" x="468.5" y="119"/><rect fill="#F1F1F1" height="2" style="stroke:#181818;stroke-width:0.5;" width="4" x="466.5" y="121"/><rect fill="#F1F1F1" height="2" style="stroke:#181818;stroke-width:0.5;" width="4" x="466.5" y="125"/><text fill="#000000" font-family="sans-serif" font-size="14" lengthAdjust="spacing" textLength="178" x="285.5" y="146.9951">programming constructs</text></g><!--MD5=[3f91fab97d451463753e9cd01a48b3e2]
entity libs--><g id="elem_libs"><rect fill="#F1F1F1" height="46.2969" rx="2.5" ry="2.5" style="stroke:#181818;stroke-width:0.5;" width="191" x="524" y="114"/><rect fill="#F1F1F1" height="10" style="stroke:#181818;stroke-width:0.5;" width="15" x="695" y="119"/><rect fill="#F1F1F1" height="2" style="stroke:#181818;stroke-width:0.5;" width="4" x="693" y="121"/><rect fill="#F1F1F1" height="2" style="stroke:#181818;stroke-width:0.5;" width="4" x="693" y="125"/><text fill="#000000" font-family="sans-serif" font-size="14" lengthAdjust="spacing" textLength="151" x="539" y="146.9951">libraries, frameworks</text></g><!--MD5=[6a88aea038141ee488e61f39bf1ca119]
entity cfg--><g id="elem_cfg"><rect fill="#F1F1F1" height="46.2969" rx="2.5" ry="2.5" style="stroke:#181818;stroke-width:0.5;" width="225" x="750" y="114"/><rect fill="#F1F1F1" height="10" style="stroke:#181818;stroke-width:0.5;" width="15" x="955" y="119"/><rect fill="#F1F1F1" height="2" style="stroke:#181818;stroke-width:0.5;" width="4" x="953" y="121"/><rect fill="#F1F1F1" height="2" style="stroke:#181818;stroke-width:0.5;" width="4" x="953" y="125"/><text fill="#000000" font-family="sans-serif" font-size="14" lengthAdjust="spacing" textLength="185" x="765" y="146.9951">configuration, declaration</text></g><!--MD5=[58b586ad9caebef2cfd75194b6a3785c]
entity func--><g id="elem_func"><rect fill="#F1F1F1" height="46.2969" rx="2.5" ry="2.5" style="stroke:#181818;stroke-width:0.5;" width="233" x="7" y="221"/><rect fill="#F1F1F1" height="10" style="stroke:#181818;stroke-width:0.5;" width="15" x="220" y="226"/><rect fill="#F1F1F1" height="2" style="stroke:#181818;stroke-width:0.5;" width="4" x="218" y="228"/><rect fill="#F1F1F1" height="2" style="stroke:#181818;stroke-width:0.5;" width="4" x="218" y="232"/><text fill="#000000" font-family="sans-serif" font-size="14" lengthAdjust="spacing" textLength="193" x="22" y="253.9951">classes, modules, functions</text></g><!--MD5=[02edd23f6a95c5d8e4596bf6ce73e6b3]
entity progs--><g id="elem_progs"><rect fill="#F1F1F1" height="46.2969" rx="2.5" ry="2.5" style="stroke:#181818;stroke-width:0.5;" width="208" x="275.5" y="221"/><rect fill="#F1F1F1" height="10" style="stroke:#181818;stroke-width:0.5;" width="15" x="463.5" y="226"/><rect fill="#F1F1F1" height="2" style="stroke:#181818;stroke-width:0.5;" width="4" x="461.5" y="228"/><rect fill="#F1F1F1" height="2" style="stroke:#181818;stroke-width:0.5;" width="4" x="461.5" y="232"/><text fill="#000000" font-family="sans-serif" font-size="14" lengthAdjust="spacing" textLength="168" x="290.5" y="253.9951">components, programs</text></g><!--MD5=[ce4c7fec84eccde686f151fd39cc7387]
entity script--><g id="elem_script"><rect fill="#F1F1F1" height="46.2969" rx="2.5" ry="2.5" style="stroke:#181818;stroke-width:0.5;" width="82" x="518.5" y="221"/><rect fill="#F1F1F1" height="10" style="stroke:#181818;stroke-width:0.5;" width="15" x="580.5" y="226"/><rect fill="#F1F1F1" height="2" style="stroke:#181818;stroke-width:0.5;" width="4" x="578.5" y="228"/><rect fill="#F1F1F1" height="2" style="stroke:#181818;stroke-width:0.5;" width="4" x="578.5" y="232"/><text fill="#000000" font-family="sans-serif" font-size="14" lengthAdjust="spacing" textLength="42" x="533.5" y="253.9951">script</text></g><!--MD5=[703ea5a149c5871c74522bf38bdfe548]
entity data--><g id="elem_data"><rect fill="#F1F1F1" height="46.2969" rx="2.5" ry="2.5" style="stroke:#181818;stroke-width:0.5;" width="217" x="695" y="221"/><rect fill="#F1F1F1" height="10" style="stroke:#181818;stroke-width:0.5;" width="15" x="892" y="226"/><rect fill="#F1F1F1" height="2" style="stroke:#181818;stroke-width:0.5;" width="4" x="890" y="228"/><rect fill="#F1F1F1" height="2" style="stroke:#181818;stroke-width:0.5;" width="4" x="890" y="232"/><text fill="#000000" font-family="sans-serif" font-size="14" lengthAdjust="spacing" textLength="177" x="710" y="253.9951">data structure, DB-Table</text></g><!--MD5=[28b9ff29983a59d557880f6a95f0d886]
entity def--><g id="elem_def"><rect fill="#F1F1F1" height="46.2969" rx="2.5" ry="2.5" style="stroke:#181818;stroke-width:0.5;" width="231" x="947" y="221"/><rect fill="#F1F1F1" height="10" style="stroke:#181818;stroke-width:0.5;" width="15" x="1158" y="226"/><rect fill="#F1F1F1" height="2" style="stroke:#181818;stroke-width:0.5;" width="4" x="1156" y="228"/><rect fill="#F1F1F1" height="2" style="stroke:#181818;stroke-width:0.5;" width="4" x="1156" y="232"/><text fill="#000000" font-family="sans-serif" font-size="14" lengthAdjust="spacing" textLength="191" x="962" y="253.9951">layout/mapping, definition</text></g><!--MD5=[09f30efbede102e833436f348e42b767]
reverse link cfg to def--><g id="link_cfg_def"><path d="M908.886,162.353 C942.524,180.0124 987.653,203.7053 1020.28,220.837 " fill="none" id="cfg-backto-def" style="stroke:#181818;stroke-width:1.0;"/><polygon fill="#181818" points="904.427,160.011,910.5362,167.7361,908.854,162.3352,914.2549,160.653,904.427,160.011" style="stroke:#181818;stroke-width:1.0;"/></g><!--MD5=[6cd06d3c713f30b079317bc88ab2cebf]
reverse link cfg to data--><g id="link_cfg_data"><path d="M847.469,164.75 C837.749,182.0486 825.243,204.3047 816.055,220.6559 " fill="none" id="cfg-backto-data" style="stroke:#181818;stroke-width:1.0;"/><polygon fill="#181818" points="850.132,160.011,842.2351,165.8965,847.682,164.3696,849.2089,169.8165,850.132,160.011" style="stroke:#181818;stroke-width:1.0;"/></g><!--MD5=[e1751a4fe2e930b8e694e77aee4aa617]
reverse link bb to cfg--><g id="link_bb_cfg"><path d="M619.081,54.602 C672.208,72.367 744.511,96.545 796.492,113.927 " fill="none" id="bb-backto-cfg" style="stroke:#181818;stroke-width:1.0;"/><polygon fill="#181818" points="614.325,53.011,621.5916,59.659,619.0668,54.5969,624.129,52.0721,614.325,53.011" style="stroke:#181818;stroke-width:1.0;"/></g><!--MD5=[24a5b40c2d812768c2b0108ff0c1bc95]
reverse link cons to script--><g id="link_cons_script"><path d="M421.618,162.569 C451.853,180.2057 492.258,203.7752 521.506,220.837 " fill="none" id="cons-backto-script" style="stroke:#181818;stroke-width:1.0;"/><polygon fill="#181818" points="417.234,160.011,422.9914,168.0018,421.5525,162.531,427.0233,161.0921,417.234,160.011" style="stroke:#181818;stroke-width:1.0;"/></g><!--MD5=[76c73353e4deccf51e53b3e41252b939]
reverse link cons to progs--><g id="link_cons_progs"><path d="M379.5,165.195 C379.5,182.4287 379.5,204.4445 379.5,220.6559 " fill="none" id="cons-backto-progs" style="stroke:#181818;stroke-width:1.0;"/><polygon fill="#181818" points="379.5,160.011,375.5,169.011,379.5,165.011,383.5,169.011,379.5,160.011" style="stroke:#181818;stroke-width:1.0;"/></g><!--MD5=[eba0ec2cbe4f04c41e0b184dbcfa0f5a]
reverse link cons to func--><g id="link_cons_func"><path d="M321.178,161.921 C278.014,179.6252 219.645,203.5654 177.536,220.837 " fill="none" id="cons-backto-func" style="stroke:#181818;stroke-width:1.0;"/><polygon fill="#181818" points="325.834,160.011,315.9893,159.7253,321.208,161.9083,319.0249,167.1269,325.834,160.011" style="stroke:#181818;stroke-width:1.0;"/></g><!--MD5=[1b6537140dea66cacc668b03a75fe42b]
reverse link bb to cons--><g id="link_bb_cons"><path d="M508.606,55.786 C480.258,73.399 442.521,96.845 415.172,113.837 " fill="none" id="bb-backto-cons" style="stroke:#181818;stroke-width:1.0;"/><polygon fill="#181818" points="513.072,53.011,503.3167,54.3651,508.8255,55.6506,507.54,61.1594,513.072,53.011" style="stroke:#181818;stroke-width:1.0;"/></g><!--MD5=[23c2083b5431087e52a12f74da4ef983]
reverse link bb to pkg--><g id="link_bb_pkg"><path d="M469.463,52.536 C409.744,68.96 325.815,92.367 252.5,114 C247.054,115.607 241.383,117.311 235.725,119.032 " fill="none" id="bb-backto-pkg" style="stroke:#181818;stroke-width:1.0;"/><polygon fill="#181818" points="474.442,51.168,464.7039,49.6953,469.6207,52.4927,466.8233,57.4094,474.442,51.168" style="stroke:#181818;stroke-width:1.0;"/></g><!--MD5=[e4d13a05bf8fa843d5130a161a3ac5f1]
reverse link bb to libs--><g id="link_bb_libs"><path d="M566.289,57.308 C578.028,74.668 593.24,97.165 604.391,113.656 " fill="none" id="bb-backto-libs" style="stroke:#181818;stroke-width:1.0;"/><polygon fill="#181818" points="563.384,53.011,565.1134,62.7068,566.1855,57.1525,571.7398,58.2245,563.384,53.011" style="stroke:#181818;stroke-width:1.0;"/></g><!--MD5=[162e505f95c54f5935cc523319d6f149]
reverse link bb to bb--><g id="link_bb_bb"><path d="M635.646,21.146 C648.679,22.519 657.5,25.471 657.5,30 C657.5,35.916 642.451,39.14 622.626,39.671 " fill="none" id="bb-backto-bb" style="stroke:#181818;stroke-width:1.0;"/><polygon fill="#181818" points="622.626,20.329,628.3637,24.697,634.6024,21.0807,628.8648,16.7127,622.626,20.329" style="stroke:#181818;stroke-width:1.0;"/><text fill="#000000" font-family="sans-serif" font-size="13" lengthAdjust="spacing" textLength="69" x="663.5" y="34.5669">consists of</text></g><!--MD5=[2cec364f966f685aea268cdac6c0b4b1]
@startuml
component "building blocks" as bb
component "packages" as pkg
component "programming constructs" as cons
component "libraries, frameworks" as libs
component "configuration, declaration" as cfg
component "classes, modules, functions" as func
component "components, programs" as progs
component "script" as script
component "data structure, DB-Table" as data
component "layout/mapping, definition" as def

cfg <- - def
cfg <- - data
bb <- - cfg
cons <- - script
cons <- - progs
cons <- - func
bb <- - cons
bb <- - pkg
bb <- - libs
bb *- - bb : "consists of"
@enduml

PlantUML version 1.2022.8beta2(Unknown compile time)
(GPL source distribution)
Java Runtime: Java(TM) SE Runtime Environment
JVM: Java HotSpot(TM) 64-Bit Server VM
Default Encoding: UTF-8
Language: en
Country: US
--></g></svg>