<?xml version="1.0" encoding="UTF-8" standalone="no"?><svg xmlns="http://www.w3.org/2000/svg" xmlns:xlink="http://www.w3.org/1999/xlink" contentStyleType="text/css" height="271px" preserveAspectRatio="none" style="width:528px;height:271px;background:#FFFFFF;" version="1.1" viewBox="0 0 528 271" width="528px" zoomAndPan="magnify"><defs/><g><!--MD5=[80b291e715206a0000324c6aa0f6abdd]
cluster container A--><g id="cluster_container A"><path d="M145,78 L240,78 A3.75,3.75 0 0 1 242.5,80.5 L249.5,100.2969 L250,100.2969 A2.5,2.5 0 0 1 252.5,102.7969 L252.5,172.5 A2.5,2.5 0 0 1 250,175 L145,175 A2.5,2.5 0 0 1 142.5,172.5 L142.5,80.5 A2.5,2.5 0 0 1 145,78 " fill="none" style="stroke:#000000;stroke-width:1.5;"/><line style="stroke:#000000;stroke-width:1.5;" x1="142.5" x2="249.5" y1="100.2969" y2="100.2969"/><text fill="#000000" font-family="sans-serif" font-size="14" font-weight="bold" lengthAdjust="spacing" textLength="94" x="146.5" y="92.9951">container A</text></g><!--MD5=[78df2b64fc90541ca64bfeb1f28f439a]
cluster container B--><g id="cluster_container B"><path d="M279,78 L374,78 A3.75,3.75 0 0 1 376.5,80.5 L383.5,100.2969 L384,100.2969 A2.5,2.5 0 0 1 386.5,102.7969 L386.5,172.5 A2.5,2.5 0 0 1 384,175 L279,175 A2.5,2.5 0 0 1 276.5,172.5 L276.5,80.5 A2.5,2.5 0 0 1 279,78 " fill="none" style="stroke:#000000;stroke-width:1.5;"/><line style="stroke:#000000;stroke-width:1.5;" x1="276.5" x2="383.5" y1="100.2969" y2="100.2969"/><text fill="#000000" font-family="sans-serif" font-size="14" font-weight="bold" lengthAdjust="spacing" textLength="94" x="280.5" y="92.9951">container B</text></g><!--MD5=[341c86c2b0b50f89d2ba2322a36f569a]
entity uiA--><g id="elem_uiA"><rect fill="#F1F1F1" height="46.2969" rx="2.5" ry="2.5" style="stroke:#181818;stroke-width:0.5;" width="67" x="169" y="113"/><rect fill="#F1F1F1" height="10" style="stroke:#181818;stroke-width:0.5;" width="15" x="216" y="118"/><rect fill="#F1F1F1" height="2" style="stroke:#181818;stroke-width:0.5;" width="4" x="214" y="120"/><rect fill="#F1F1F1" height="2" style="stroke:#181818;stroke-width:0.5;" width="4" x="214" y="124"/><text fill="#000000" font-family="sans-serif" font-size="14" lengthAdjust="spacing" textLength="27" x="184" y="145.9951">UI A</text></g><!--MD5=[42ded0d36ad16b0fd14eb82b086f8992]
entity uiB--><g id="elem_uiB"><rect fill="#F1F1F1" height="46.2969" rx="2.5" ry="2.5" style="stroke:#181818;stroke-width:0.5;" width="67" x="293" y="113"/><rect fill="#F1F1F1" height="10" style="stroke:#181818;stroke-width:0.5;" width="15" x="340" y="118"/><rect fill="#F1F1F1" height="2" style="stroke:#181818;stroke-width:0.5;" width="4" x="338" y="120"/><rect fill="#F1F1F1" height="2" style="stroke:#181818;stroke-width:0.5;" width="4" x="338" y="124"/><text fill="#000000" font-family="sans-serif" font-size="14" lengthAdjust="spacing" textLength="27" x="308" y="145.9951">UI B</text></g><!--MD5=[d7e357a9d65542d4484f3ff5e134c26a]
entity loc--><g id="elem_loc"><rect fill="#F1F1F1" height="46.2969" rx="2.5" ry="2.5" style="stroke:#181818;stroke-width:0.5;" width="98" x="215.5" y="219"/><rect fill="#F1F1F1" height="10" style="stroke:#181818;stroke-width:0.5;" width="15" x="293.5" y="224"/><rect fill="#F1F1F1" height="2" style="stroke:#181818;stroke-width:0.5;" width="4" x="291.5" y="226"/><rect fill="#F1F1F1" height="2" style="stroke:#181818;stroke-width:0.5;" width="4" x="291.5" y="230"/><text fill="#000000" font-family="sans-serif" font-size="14" lengthAdjust="spacing" textLength="58" x="230.5" y="251.9951">Lokalise</text></g><!--MD5=[49e5323536de51a8eeb36e22eeb86df9]
entity svcA--><g id="elem_svcA"><rect fill="#F1F1F1" height="46.2969" rx="2.5" ry="2.5" style="stroke:#181818;stroke-width:0.5;" width="119" x="7" y="113"/><rect fill="#F1F1F1" height="10" style="stroke:#181818;stroke-width:0.5;" width="15" x="106" y="118"/><rect fill="#F1F1F1" height="2" style="stroke:#181818;stroke-width:0.5;" width="4" x="104" y="120"/><rect fill="#F1F1F1" height="2" style="stroke:#181818;stroke-width:0.5;" width="4" x="104" y="124"/><text fill="#000000" font-family="sans-serif" font-size="14" lengthAdjust="spacing" textLength="79" x="22" y="145.9951">Services ...</text></g><!--MD5=[64a3df0768c6e0a964d837c425998e0a]
entity svcB--><g id="elem_svcB"><rect fill="#F1F1F1" height="46.2969" rx="2.5" ry="2.5" style="stroke:#181818;stroke-width:0.5;" width="119" x="403" y="113"/><rect fill="#F1F1F1" height="10" style="stroke:#181818;stroke-width:0.5;" width="15" x="502" y="118"/><rect fill="#F1F1F1" height="2" style="stroke:#181818;stroke-width:0.5;" width="4" x="500" y="120"/><rect fill="#F1F1F1" height="2" style="stroke:#181818;stroke-width:0.5;" width="4" x="500" y="124"/><text fill="#000000" font-family="sans-serif" font-size="14" lengthAdjust="spacing" textLength="79" x="418" y="145.9951">Services ...</text></g><!--MD5=[d8ebd50a0b1e8e8c70d31763b84b52cd]
entity prodA--><g id="elem_prodA"><rect fill="#F1F1F1" height="46.2969" rx="2.5" ry="2.5" style="stroke:#181818;stroke-width:0.5;" width="110" x="68.5" y="7"/><rect fill="#F1F1F1" height="10" style="stroke:#181818;stroke-width:0.5;" width="15" x="158.5" y="12"/><rect fill="#F1F1F1" height="2" style="stroke:#181818;stroke-width:0.5;" width="4" x="156.5" y="14"/><rect fill="#F1F1F1" height="2" style="stroke:#181818;stroke-width:0.5;" width="4" x="156.5" y="18"/><text fill="#000000" font-family="sans-serif" font-size="14" lengthAdjust="spacing" textLength="70" x="83.5" y="39.9951">Product A</text></g><!--MD5=[3aa6c194d305d5a1a7ef69869c56b650]
entity prodB--><g id="elem_prodB"><rect fill="#F1F1F1" height="46.2969" rx="2.5" ry="2.5" style="stroke:#181818;stroke-width:0.5;" width="110" x="242.5" y="7"/><rect fill="#F1F1F1" height="10" style="stroke:#181818;stroke-width:0.5;" width="15" x="332.5" y="12"/><rect fill="#F1F1F1" height="2" style="stroke:#181818;stroke-width:0.5;" width="4" x="330.5" y="14"/><rect fill="#F1F1F1" height="2" style="stroke:#181818;stroke-width:0.5;" width="4" x="330.5" y="18"/><text fill="#000000" font-family="sans-serif" font-size="14" lengthAdjust="spacing" textLength="70" x="257.5" y="39.9951">Product B</text></g><!--MD5=[b3b567438397e0be1c6cc3cacf9e674c]
reverse link prodA to uiA--><g id="link_prodA_uiA"><path d="M143.488,57.313 C156.551,74.511 173.417,96.713 185.77,112.976 " fill="none" id="prodA-backto-uiA" style="stroke:#181818;stroke-width:1.0;"/><polygon fill="#181818" points="140.254,53.056,142.5127,62.6424,143.2784,57.0376,148.8832,57.8033,140.254,53.056" style="stroke:#181818;stroke-width:1.0;"/></g><!--MD5=[79803cd8da9162067b4f56321d538f49]
reverse link uiA to loc--><g id="link_uiA_loc"><path d="M218.448,163.752 C228.663,180.8866 241.758,202.8513 251.37,218.9761 " fill="none" id="uiA-backto-loc" style="stroke:#181818;stroke-width:1.0;"/><polygon fill="#181818" points="215.649,159.056,216.8241,168.8345,218.2103,163.3501,223.6947,164.7364,215.649,159.056" style="stroke:#181818;stroke-width:1.0;"/></g><!--MD5=[2384b5df2e2a5cd4b666e50988433ca5]
reverse link uiB to loc--><g id="link_uiB_loc"><path d="M310.552,163.752 C300.337,180.8866 287.242,202.8513 277.63,218.9761 " fill="none" id="uiB-backto-loc" style="stroke:#181818;stroke-width:1.0;"/><polygon fill="#181818" points="313.351,159.056,305.3053,164.7364,310.7897,163.3501,312.1759,168.8345,313.351,159.056" style="stroke:#181818;stroke-width:1.0;"/></g><!--MD5=[852a3eac55861cbb12d2a5de3542ecb7]
reverse link prodA to svcA--><g id="link_prodA_svcA"><path d="M108.838,57.752 C99.4468,74.887 87.4084,96.851 78.5708,112.976 " fill="none" id="prodA-backto-svcA" style="stroke:#181818;stroke-width:1.0;"/><polygon fill="#181818" points="111.412,53.056,103.5788,59.0259,109.0089,57.4407,110.5942,62.8708,111.412,53.056" style="stroke:#181818;stroke-width:1.0;"/></g><!--MD5=[0f83a2824676c51dd676ae5b1457786a]
reverse link prodB to uiB--><g id="link_prodB_uiB"><path d="M305.082,58.192 C309.842,75.262 315.901,96.989 320.359,112.976 " fill="none" id="prodB-backto-uiB" style="stroke:#181818;stroke-width:1.0;"/><polygon fill="#181818" points="303.65,53.056,302.2144,62.7997,304.993,57.8723,309.9204,60.6509,303.65,53.056" style="stroke:#181818;stroke-width:1.0;"/></g><!--MD5=[f7b93cb2fe550d3b6ba9fe04b8ec09b0]
reverse link prodB to svcB--><g id="link_prodB_svcB"><path d="M350.755,55.57 C359.511,60.096 368.373,64.985 376.5,70 C397.364,82.875 419.395,99.594 435.935,112.851 " fill="none" id="prodB-backto-svcB" style="stroke:#181818;stroke-width:1.0;"/><polygon fill="#181818" points="345.908,53.095,352.1037,60.751,350.3608,55.3693,355.7425,53.6264,345.908,53.095" style="stroke:#181818;stroke-width:1.0;"/></g><!--MD5=[be475ce924ce87c0e38164d407eee351]
reverse link prodB to svcA--><g id="link_prodB_svcA"><path d="M237.395,41.723 C210.557,47.869 179.063,57.005 152.5,70 C129.636,81.185 106.7939,98.831 90.4028,112.916 " fill="none" id="prodB-backto-svcA" style="stroke:#FF0000;stroke-width:1.0;"/><polygon fill="#FF0000" points="242.35,40.61,232.6921,38.6801,237.4716,41.706,234.4457,46.4855,242.35,40.61" style="stroke:#FF0000;stroke-width:1.0;"/></g><!--MD5=[4ede5af352fccb01834640c26a6f3c9c]
reverse link prodB to uiA--><g id="link_prodB_uiA"><path d="M273.862,56.877 C258.099,74.134 237.599,96.576 222.618,112.976 " fill="none" id="prodB-backto-uiA" style="stroke:#FF0000;stroke-width:1.0;"/><polygon fill="#FF0000" points="277.353,53.056,268.3292,57.0021,273.9803,56.7472,274.2352,62.3983,277.353,53.056" style="stroke:#FF0000;stroke-width:1.0;"/></g><!--MD5=[d332e68b165f7d86e76630c845e86aad]
@startuml
component "Lokalise" as loc
package "container A" {
    component "UI A" as uiA
}
package "container B" {
    component "UI B" as uiB
}
component "Services ..." as svcA
component "Services ..." as svcB
component "Product A" as prodA
component "Product B" as prodB

uiA -u-> prodA
loc -u-> uiA
loc -u-> uiB
svcA -u-> prodA
uiB -u-> prodB
svcB -u-> prodB

svcA -[#red]u-> prodB
uiA -[#red]u-> prodB
@enduml

PlantUML version 1.2022.8beta2(Unknown compile time)
(GPL source distribution)
Java Runtime: Java(TM) SE Runtime Environment
JVM: Java HotSpot(TM) 64-Bit Server VM
Default Encoding: UTF-8
Language: en
Country: US
--></g></svg>